<?xml version="1.0" encoding="UTF-8"?>
<svg width="588px" height="224px" viewBox="0 0 588 224" version="1.1" xmlns="http://www.w3.org/2000/svg" xmlns:xlink="http://www.w3.org/1999/xlink">
    <title>Web Ready</title>
    <g id="Web-Ready" stroke="none" stroke-width="1" fill="none" fill-rule="evenodd">
        <path d="M58.77,102.7 C61.7566667,102.7 64.405,102.268333 66.715,101.405 C69.025,100.541667 71.0316667,99.3633333 72.735,97.87 C74.4383333,96.3766667 75.78,94.65 76.76,92.69 L76.76,92.69 L63.81,88.77 C63.4366667,89.33 62.9816667,89.82 62.445,90.24 C61.9083333,90.66 61.3366667,90.975 60.73,91.185 C60.1233333,91.395 59.4466667,91.5 58.7,91.5 C57.4866667,91.5 56.39,91.185 55.41,90.555 C54.43,89.925 53.6483333,89.015 53.065,87.825 C52.4816667,86.635 52.19,85.2233333 52.19,83.59 C52.19,81.91 52.4816667,80.4866667 53.065,79.32 C53.6483333,78.1533333 54.43,77.255 55.41,76.625 C56.39,75.995 57.4866667,75.68 58.7,75.68 C59.7733333,75.68 60.7416667,75.9133333 61.605,76.38 C62.4683333,76.8466667 63.2033333,77.5233333 63.81,78.41 L63.81,78.41 L76.76,74.49 C75.2666667,71.55 73.0033333,69.1466667 69.97,67.28 C66.9366667,65.4133333 63.2033333,64.48 58.77,64.48 C54.43,64.48 50.755,65.3666667 47.745,67.14 C44.735,68.9133333 42.4483333,71.2583333 40.885,74.175 C39.3216667,77.0916667 38.54,80.23 38.54,83.59 C38.54,86.11 38.9833333,88.5133333 39.87,90.8 C40.7566667,93.0866667 42.0633333,95.1283333 43.79,96.925 C45.5166667,98.7216667 47.6283333,100.133333 50.125,101.16 C52.6216667,102.186667 55.5033333,102.7 58.77,102.7 Z M112.46,102.7 C113.206667,102.7 114.058333,102.641667 115.015,102.525 C115.971667,102.408333 116.986667,102.233333 118.06,102 L118.06,102 L118.06,90.8 C117.126667,90.7066667 116.473333,90.415 116.1,89.925 C115.726667,89.435 115.54,88.56 115.54,87.3 L115.54,87.3 L115.54,80.16 C115.54,74.98 113.941667,71.0716667 110.745,68.435 C107.548333,65.7983333 103.033333,64.48 97.2,64.48 C94.0733333,64.48 91.145,64.865 88.415,65.635 C85.685,66.405 83.0833333,67.5833333 80.61,69.17 L80.61,69.17 L84.46,77.43 C86.42,76.1233333 88.2983333,75.1316667 90.095,74.455 C91.8916667,73.7783333 93.8166667,73.44 95.87,73.44 C98.11,73.44 99.7316667,73.86 100.735,74.7 C101.738333,75.54 102.24,76.8233333 102.24,78.55 L102.24,78.55 L102.24,79.67 C101.306667,79.2033333 100.198333,78.8533333 98.915,78.62 C97.6316667,78.3866667 96.2666667,78.27 94.82,78.27 C91.74,78.27 88.9983333,78.8066667 86.595,79.88 C84.1916667,80.9533333 82.3133333,82.435 80.96,84.325 C79.6066667,86.215 78.93,88.3966667 78.93,90.87 C78.93,93.11 79.49,95.1283333 80.61,96.925 C81.73,98.7216667 83.27,100.133333 85.23,101.16 C87.19,102.186667 89.3833333,102.7 91.81,102.7 C94.2366667,102.7 96.5233333,102.151667 98.67,101.055 C100.816667,99.9583333 102.706667,98.36 104.34,96.26 L104.34,96.26 L104.62,97.59 C104.993333,99.27 105.798333,100.541667 107.035,101.405 C108.271667,102.268333 110.08,102.7 112.46,102.7 Z M95.8,93.18 C94.96,93.18 94.2133333,93.0283333 93.56,92.725 C92.9066667,92.4216667 92.3933333,92.0016667 92.02,91.465 C91.6466667,90.9283333 91.46,90.3333333 91.46,89.68 C91.46,88.4666667 92.0083333,87.4633333 93.105,86.67 C94.2016667,85.8766667 95.5433333,85.48 97.13,85.48 C97.8766667,85.48 98.7283333,85.5733333 99.685,85.76 C100.641667,85.9466667 101.493333,86.18 102.24,86.46 L102.24,86.46 L102.24,89.19 C102.24,89.6566667 102.076667,90.1116667 101.75,90.555 C101.423333,90.9983333 101.003333,91.4066667 100.49,91.78 C99.8833333,92.2 99.1483333,92.5383333 98.285,92.795 C97.4216667,93.0516667 96.5933333,93.18 95.8,93.18 Z M136.19,102 L136.19,81.35 C136.75,79.81 137.636667,78.55 138.85,77.57 C140.063333,76.59 141.183333,76.1 142.21,76.1 C143.236667,76.1 144.111667,76.5083333 144.835,77.325 C145.558333,78.1416667 145.92,79.46 145.92,81.28 L145.92,81.28 L145.92,102 L159.22,102 L159.22,81.35 C159.78,79.81 160.666667,78.55 161.88,77.57 C163.093333,76.59 164.213333,76.1 165.24,76.1 C166.266667,76.1 167.141667,76.5083333 167.865,77.325 C168.588333,78.1416667 168.95,79.46 168.95,81.28 L168.95,81.28 L168.95,102 L182.25,102 L182.25,77.78 C182.25,76.52 182.133333,75.1316667 181.9,73.615 C181.666667,72.0983333 181.188333,70.64 180.465,69.24 C179.741667,67.84 178.656667,66.6966667 177.21,65.81 C175.763333,64.9233333 173.826667,64.48 171.4,64.48 C168.553333,64.48 165.986667,65.04 163.7,66.16 C161.413333,67.28 159.616667,68.8433333 158.31,70.85 C157.796667,69.2166667 156.77,67.7466667 155.23,66.44 C153.69,65.1333333 151.403333,64.48 148.37,64.48 C145.243333,64.48 142.536667,65.005 140.25,66.055 C137.963333,67.105 136.166667,68.6333333 134.86,70.64 L134.86,70.64 L134.86,65.18 L122.89,65.18 L122.89,102 L136.19,102 Z M206.82,102.7 C209.806667,102.7 212.49,102.268333 214.87,101.405 C217.25,100.541667 219.315,99.3633333 221.065,97.87 C222.815,96.3766667 224.18,94.65 225.16,92.69 L225.16,92.69 L213.89,89.47 C213.47,90.6366667 212.618333,91.5466667 211.335,92.2 C210.051667,92.8533333 208.686667,93.18 207.24,93.18 C206.213333,93.18 205.221667,92.9933333 204.265,92.62 C203.308333,92.2466667 202.515,91.6516667 201.885,90.835 C201.255,90.0183333 200.893333,88.9566667 200.8,87.65 L200.8,87.65 L226.63,87.65 C226.723333,87.09 226.805,86.4483333 226.875,85.725 C226.945,85.0016667 226.98,84.29 226.98,83.59 C226.98,80.1833333 226.21,77.0333333 224.67,74.14 C223.13,71.2466667 220.866667,68.9133333 217.88,67.14 C214.893333,65.3666667 211.206667,64.48 206.82,64.48 C202.433333,64.48 198.746667,65.3783333 195.76,67.175 C192.773333,68.9716667 190.51,71.3516667 188.97,74.315 C187.43,77.2783333 186.66,80.5333333 186.66,84.08 C186.66,86.5533333 187.103333,88.91 187.99,91.15 C188.876667,93.39 190.171667,95.3733333 191.875,97.1 C193.578333,98.8266667 195.69,100.191667 198.21,101.195 C200.73,102.198333 203.6,102.7 206.82,102.7 Z M212.7,79.67 L200.52,79.67 C200.66,78.4566667 200.998333,77.43 201.535,76.59 C202.071667,75.75 202.771667,75.0966667 203.635,74.63 C204.498333,74.1633333 205.49,73.93 206.61,73.93 C207.73,73.93 208.721667,74.1633333 209.585,74.63 C210.448333,75.0966667 211.148333,75.75 211.685,76.59 C212.221667,77.43 212.56,78.4566667 212.7,79.67 L212.7,79.67 Z M247.21,102 L247.21,79.46 L255.26,79.46 L255.26,69.45 L247.21,69.45 L247.21,64.97 C247.21,63.7566667 247.478333,62.8583333 248.015,62.275 C248.551667,61.6916667 249.356667,61.4 250.43,61.4 C251.13,61.4 251.946667,61.4933333 252.88,61.68 C253.813333,61.8666667 254.653333,62.1 255.4,62.38 L255.4,62.38 L257.64,52.3 C255.773333,51.6 254,51.075 252.32,50.725 C250.64,50.375 249.006667,50.2 247.42,50.2 C244.713333,50.2 242.345,50.83 240.315,52.09 C238.285,53.35 236.71,55.1233333 235.59,57.41 C234.47,59.6966667 233.91,62.38 233.91,65.46 L233.91,65.46 L233.91,69.45 L229.36,69.45 L229.36,79.46 L233.91,79.46 L233.91,102 L247.21,102 Z M272.76,102 L272.76,80.16 C273.786667,78.8533333 275.35,77.92 277.45,77.36 C279.55,76.8 281.883333,76.52 284.45,76.52 L284.45,76.52 L284.45,64.55 C284.263333,64.5033333 284.065,64.48 283.855,64.48 L283.855,64.48 L282.77,64.48 C280.576667,64.48 278.5,65.145 276.54,66.475 C274.58,67.805 272.946667,69.7066667 271.64,72.18 L271.64,72.18 L271.64,65.18 L259.46,65.18 L259.46,102 L272.76,102 Z M306.71,102.7 C310.023333,102.7 312.928333,102.186667 315.425,101.16 C317.921667,100.133333 320.021667,98.7216667 321.725,96.925 C323.428333,95.1283333 324.711667,93.0866667 325.575,90.8 C326.438333,88.5133333 326.87,86.11 326.87,83.59 C326.87,81.07 326.438333,78.655 325.575,76.345 C324.711667,74.035 323.428333,71.9933333 321.725,70.22 C320.021667,68.4466667 317.921667,67.0466667 315.425,66.02 C312.928333,64.9933333 310.023333,64.48 306.71,64.48 C303.443333,64.48 300.55,64.9933333 298.03,66.02 C295.51,67.0466667 293.398333,68.4466667 291.695,70.22 C289.991667,71.9933333 288.708333,74.035 287.845,76.345 C286.981667,78.655 286.55,81.07 286.55,83.59 C286.55,86.11 286.981667,88.5133333 287.845,90.8 C288.708333,93.0866667 289.991667,95.1283333 291.695,96.925 C293.398333,98.7216667 295.51,100.133333 298.03,101.16 C300.55,102.186667 303.443333,102.7 306.71,102.7 Z M306.71,91.5 C305.45,91.5 304.33,91.185 303.35,90.555 C302.37,89.925 301.6,89.015 301.04,87.825 C300.48,86.635 300.2,85.2233333 300.2,83.59 C300.2,81.9566667 300.48,80.545 301.04,79.355 C301.6,78.165 302.37,77.255 303.35,76.625 C304.33,75.995 305.45,75.68 306.71,75.68 C307.97,75.68 309.09,75.995 310.07,76.625 C311.05,77.255 311.82,78.165 312.38,79.355 C312.94,80.545 313.22,81.9566667 313.22,83.59 C313.22,85.2233333 312.94,86.635 312.38,87.825 C311.82,89.015 311.05,89.925 310.07,90.555 C309.09,91.185 307.97,91.5 306.71,91.5 Z M344.86,102 L344.86,81.35 C345.42,79.81 346.306667,78.55 347.52,77.57 C348.733333,76.59 349.853333,76.1 350.88,76.1 C351.906667,76.1 352.781667,76.5083333 353.505,77.325 C354.228333,78.1416667 354.59,79.46 354.59,81.28 L354.59,81.28 L354.59,102 L367.89,102 L367.89,81.35 C368.45,79.81 369.336667,78.55 370.55,77.57 C371.763333,76.59 372.883333,76.1 373.91,76.1 C374.936667,76.1 375.811667,76.5083333 376.535,77.325 C377.258333,78.1416667 377.62,79.46 377.62,81.28 L377.62,81.28 L377.62,102 L390.92,102 L390.92,77.78 C390.92,76.52 390.803333,75.1316667 390.57,73.615 C390.336667,72.0983333 389.858333,70.64 389.135,69.24 C388.411667,67.84 387.326667,66.6966667 385.88,65.81 C384.433333,64.9233333 382.496667,64.48 380.07,64.48 C377.223333,64.48 374.656667,65.04 372.37,66.16 C370.083333,67.28 368.286667,68.8433333 366.98,70.85 C366.466667,69.2166667 365.44,67.7466667 363.9,66.44 C362.36,65.1333333 360.073333,64.48 357.04,64.48 C353.913333,64.48 351.206667,65.005 348.92,66.055 C346.633333,67.105 344.836667,68.6333333 343.53,70.64 L343.53,70.64 L343.53,65.18 L331.56,65.18 L331.56,102 L344.86,102 Z M206.82,166.7 C211.533333,166.7 215.255,165.603333 217.985,163.41 C220.715,161.216667 222.08,158.183333 222.08,154.31 C222.08,152.116667 221.601667,150.343333 220.645,148.99 C219.688333,147.636667 218.206667,146.481667 216.2,145.525 C214.193333,144.568333 211.603333,143.623333 208.43,142.69 C207.356667,142.363333 206.47,142.071667 205.77,141.815 C205.07,141.558333 204.556667,141.278333 204.23,140.975 C203.903333,140.671667 203.74,140.286667 203.74,139.82 C203.74,139.353333 203.856667,138.98 204.09,138.7 C204.323333,138.42 204.661667,138.21 205.105,138.07 C205.548333,137.93 206.073333,137.86 206.68,137.86 C207.94,137.86 209.375,138.163333 210.985,138.77 C212.595,139.376667 214.566667,140.403333 216.9,141.85 L216.9,141.85 L221.94,133.73 C219.606667,131.723333 217.191667,130.335 214.695,129.565 C212.198333,128.795 209.713333,128.41 207.24,128.41 C203.926667,128.41 201.091667,128.97 198.735,130.09 C196.378333,131.21 194.57,132.738333 193.31,134.675 C192.05,136.611667 191.42,138.84 191.42,141.36 C191.42,143.506667 191.898333,145.221667 192.855,146.505 C193.811667,147.788333 195.258333,148.873333 197.195,149.76 C199.131667,150.646667 201.546667,151.603333 204.44,152.63 C205.56,152.956667 206.481667,153.26 207.205,153.54 C207.928333,153.82 208.453333,154.1 208.78,154.38 C209.106667,154.66 209.27,155.01 209.27,155.43 C209.27,156.036667 209.036667,156.468333 208.57,156.725 C208.103333,156.981667 207.38,157.11 206.4,157.11 C204.673333,157.11 202.748333,156.69 200.625,155.85 C198.501667,155.01 196.296667,153.843333 194.01,152.35 L194.01,152.35 L189.46,160.54 C191.606667,162.546667 194.231667,164.075 197.335,165.125 C200.438333,166.175 203.6,166.7 206.82,166.7 Z M240.42,180.91 L240.42,160.54 C241.493333,162.546667 243.01,164.075 244.97,165.125 C246.93,166.175 249.24,166.7 251.9,166.7 C254.933333,166.7 257.628333,165.86 259.985,164.18 C262.341667,162.5 264.196667,160.213333 265.55,157.32 C266.903333,154.426667 267.58,151.136667 267.58,147.45 C267.58,144.696667 267.16,142.176667 266.32,139.89 C265.48,137.603333 264.29,135.596667 262.75,133.87 C261.21,132.143333 259.413333,130.813333 257.36,129.88 C255.306667,128.946667 253.043333,128.48 250.57,128.48 C247.816667,128.48 245.471667,129.016667 243.535,130.09 C241.598333,131.163333 239.976667,132.703333 238.67,134.71 L238.67,134.71 L238.67,129.18 L227.12,129.18 L227.12,180.91 L240.42,180.91 Z M247.28,155.5 C246.346667,155.5 245.436667,155.255 244.55,154.765 C243.663333,154.275 242.858333,153.598333 242.135,152.735 C241.411667,151.871667 240.84,150.903333 240.42,149.83 L240.42,149.83 L240.42,143.46 C240.84,142.806667 241.295,142.246667 241.785,141.78 C242.275,141.313333 242.776667,140.928333 243.29,140.625 C243.803333,140.321667 244.351667,140.088333 244.935,139.925 C245.518333,139.761667 246.113333,139.68 246.72,139.68 C247.793333,139.68 248.773333,139.866667 249.66,140.24 C250.546667,140.613333 251.316667,141.138333 251.97,141.815 C252.623333,142.491667 253.125,143.296667 253.475,144.23 C253.825,145.163333 254,146.213333 254,147.38 C254,148.5 253.836667,149.55 253.51,150.53 C253.183333,151.51 252.716667,152.373333 252.11,153.12 C251.503333,153.866667 250.791667,154.45 249.975,154.87 C249.158333,155.29 248.26,155.5 247.28,155.5 Z M303.91,166.7 C304.656667,166.7 305.508333,166.641667 306.465,166.525 C307.421667,166.408333 308.436667,166.233333 309.51,166 L309.51,166 L309.51,154.8 C308.576667,154.706667 307.923333,154.415 307.55,153.925 C307.176667,153.435 306.99,152.56 306.99,151.3 L306.99,151.3 L306.99,144.16 C306.99,138.98 305.391667,135.071667 302.195,132.435 C298.998333,129.798333 294.483333,128.48 288.65,128.48 C285.523333,128.48 282.595,128.865 279.865,129.635 C277.135,130.405 274.533333,131.583333 272.06,133.17 L272.06,133.17 L275.91,141.43 C277.87,140.123333 279.748333,139.131667 281.545,138.455 C283.341667,137.778333 285.266667,137.44 287.32,137.44 C289.56,137.44 291.181667,137.86 292.185,138.7 C293.188333,139.54 293.69,140.823333 293.69,142.55 L293.69,142.55 L293.69,143.67 C292.756667,143.203333 291.648333,142.853333 290.365,142.62 C289.081667,142.386667 287.716667,142.27 286.27,142.27 C283.19,142.27 280.448333,142.806667 278.045,143.88 C275.641667,144.953333 273.763333,146.435 272.41,148.325 C271.056667,150.215 270.38,152.396667 270.38,154.87 C270.38,157.11 270.94,159.128333 272.06,160.925 C273.18,162.721667 274.72,164.133333 276.68,165.16 C278.64,166.186667 280.833333,166.7 283.26,166.7 C285.686667,166.7 287.973333,166.151667 290.12,165.055 C292.266667,163.958333 294.156667,162.36 295.79,160.26 L295.79,160.26 L296.07,161.59 C296.443333,163.27 297.248333,164.541667 298.485,165.405 C299.721667,166.268333 301.53,166.7 303.91,166.7 Z M287.25,157.18 C286.41,157.18 285.663333,157.028333 285.01,156.725 C284.356667,156.421667 283.843333,156.001667 283.47,155.465 C283.096667,154.928333 282.91,154.333333 282.91,153.68 C282.91,152.466667 283.458333,151.463333 284.555,150.67 C285.651667,149.876667 286.993333,149.48 288.58,149.48 C289.326667,149.48 290.178333,149.573333 291.135,149.76 C292.091667,149.946667 292.943333,150.18 293.69,150.46 L293.69,150.46 L293.69,153.19 C293.69,153.656667 293.526667,154.111667 293.2,154.555 C292.873333,154.998333 292.453333,155.406667 291.94,155.78 C291.333333,156.2 290.598333,156.538333 289.735,156.795 C288.871667,157.051667 288.043333,157.18 287.25,157.18 Z M332.54,166.7 C335.526667,166.7 338.175,166.268333 340.485,165.405 C342.795,164.541667 344.801667,163.363333 346.505,161.87 C348.208333,160.376667 349.55,158.65 350.53,156.69 L350.53,156.69 L337.58,152.77 C337.206667,153.33 336.751667,153.82 336.215,154.24 C335.678333,154.66 335.106667,154.975 334.5,155.185 C333.893333,155.395 333.216667,155.5 332.47,155.5 C331.256667,155.5 330.16,155.185 329.18,154.555 C328.2,153.925 327.418333,153.015 326.835,151.825 C326.251667,150.635 325.96,149.223333 325.96,147.59 C325.96,145.91 326.251667,144.486667 326.835,143.32 C327.418333,142.153333 328.2,141.255 329.18,140.625 C330.16,139.995 331.256667,139.68 332.47,139.68 C333.543333,139.68 334.511667,139.913333 335.375,140.38 C336.238333,140.846667 336.973333,141.523333 337.58,142.41 L337.58,142.41 L350.53,138.49 C349.036667,135.55 346.773333,133.146667 343.74,131.28 C340.706667,129.413333 336.973333,128.48 332.54,128.48 C328.2,128.48 324.525,129.366667 321.515,131.14 C318.505,132.913333 316.218333,135.258333 314.655,138.175 C313.091667,141.091667 312.31,144.23 312.31,147.59 C312.31,150.11 312.753333,152.513333 313.64,154.8 C314.526667,157.086667 315.833333,159.128333 317.56,160.925 C319.286667,162.721667 321.398333,164.133333 323.895,165.16 C326.391667,166.186667 329.273333,166.7 332.54,166.7 Z M372.86,166.7 C375.846667,166.7 378.53,166.268333 380.91,165.405 C383.29,164.541667 385.355,163.363333 387.105,161.87 C388.855,160.376667 390.22,158.65 391.2,156.69 L391.2,156.69 L379.93,153.47 C379.51,154.636667 378.658333,155.546667 377.375,156.2 C376.091667,156.853333 374.726667,157.18 373.28,157.18 C372.253333,157.18 371.261667,156.993333 370.305,156.62 C369.348333,156.246667 368.555,155.651667 367.925,154.835 C367.295,154.018333 366.933333,152.956667 366.84,151.65 L366.84,151.65 L392.67,151.65 C392.763333,151.09 392.845,150.448333 392.915,149.725 C392.985,149.001667 393.02,148.29 393.02,147.59 C393.02,144.183333 392.25,141.033333 390.71,138.14 C389.17,135.246667 386.906667,132.913333 383.92,131.14 C380.933333,129.366667 377.246667,128.48 372.86,128.48 C368.473333,128.48 364.786667,129.378333 361.8,131.175 C358.813333,132.971667 356.55,135.351667 355.01,138.315 C353.47,141.278333 352.7,144.533333 352.7,148.08 C352.7,150.553333 353.143333,152.91 354.03,155.15 C354.916667,157.39 356.211667,159.373333 357.915,161.1 C359.618333,162.826667 361.73,164.191667 364.25,165.195 C366.77,166.198333 369.64,166.7 372.86,166.7 Z M378.74,143.67 L366.56,143.67 C366.7,142.456667 367.038333,141.43 367.575,140.59 C368.111667,139.75 368.811667,139.096667 369.675,138.63 C370.538333,138.163333 371.53,137.93 372.65,137.93 C373.77,137.93 374.761667,138.163333 375.625,138.63 C376.488333,139.096667 377.188333,139.75 377.725,140.59 C378.261667,141.43 378.6,142.456667 378.74,143.67 L378.74,143.67 Z" id="camefromspace" fill="#222051" fill-rule="nonzero"></path>
        <path d="M555.491011,75.4205038 C557.467913,77.3485385 557.507528,80.5141155 555.579494,82.491018 L514.716099,124.358716 L490.894104,148.699837 L482.443414,157.279886 L480.81605,158.912792 C472.192705,167.501866 463.706767,171.000002 452.518481,171.000002 C431.25455,171.000002 413.999998,153.887979 413.999998,132.758396 C413.999998,122.486468 418.104523,112.849146 425.270124,105.72904 L433.362206,97.6717361 L439.390156,91.6250543 L441.236103,89.7456932 L442.08253,88.8600705 C443.957296,86.8325806 447.120699,86.7087731 449.148189,88.5835386 C451.175679,90.4583042 451.299486,93.6217073 449.424721,95.6491972 L448.687206,96.4250299 L446.976508,98.1739134 L443.90632,101.267813 L436.567023,108.597351 L432.318637,112.82259 C427.021335,118.08626 423.999998,125.180285 423.999998,132.758396 C423.999998,148.346478 436.758915,161.000002 452.518481,161.000002 C460.905766,161.000002 466.790549,158.638161 473.385024,152.196642 L475.94719,149.628687 L480.983136,144.519692 L497.189589,127.981835 L533.275083,91.0348786 L548.420496,75.5089869 C550.348531,73.5320844 553.514108,73.4924692 555.491011,75.4205038 Z M453.5,113 C464.750062,113 474,121.653168 474,132.5 C474,143.346832 464.750062,152 453.5,152 C442.249938,152 433,143.346832 433,132.5 C433,121.653168 442.249938,113 453.5,113 Z M453.5,123 C447.629235,123 443,127.330574 443,132.5 C443,137.669426 447.629235,142 453.5,142 C459.370765,142 464,137.669426 464,132.5 C464,127.330574 459.370765,123 453.5,123 Z M536.410038,62.5681645 C538.33048,64.4377639 538.426968,67.4748223 536.669742,69.460992 L536.504887,69.6385962 L508.58264,98.3201768 C506.656386,100.298814 503.490846,100.34128 501.512209,98.4150259 C499.591766,96.5454265 499.495279,93.508368 501.252504,91.5221984 L501.41736,91.3445942 L529.339606,62.6630136 C531.26586,60.684376 534.4314,60.6419106 536.410038,62.5681645 Z M475.419706,61.352314 C477.375015,63.1854167 477.528679,66.2201195 475.809167,68.2390285 L475.647686,68.4197056 L460.647686,84.4197056 C458.759035,86.434267 455.594856,86.5363373 453.580294,84.647686 C451.624985,82.8145833 451.471321,79.7798805 453.190833,77.7609715 L453.352314,77.5802944 L468.352314,61.5802944 C470.240965,59.565733 473.405144,59.4636627 475.419706,61.352314 Z M506.538045,61.7280607 C508.381139,63.6739552 508.354463,66.7124288 506.518186,68.6257503 L506.346268,68.7965274 L501.438345,73.4451681 C499.433484,75.3441134 496.268823,75.2582518 494.369878,73.2533908 C492.526784,71.3074963 492.553461,68.2690227 494.389738,66.3557011 L494.561655,66.1849241 L499.469579,61.5362834 C501.47444,59.637338 504.6391,59.7231996 506.538045,61.7280607 Z M508.476436,28.6331915 C510.359164,30.5373054 510.399405,33.5718222 508.609654,35.5243359 L508.436504,35.7041466 L487.515511,56.3901659 C485.551894,58.3317291 482.386119,58.3138506 480.444556,56.3502332 C478.561828,54.4461193 478.521587,51.4116025 480.311339,49.4590888 L480.484489,49.2792781 L501.405481,28.5932588 C503.369099,26.6516956 506.534873,26.6695741 508.476436,28.6331915 Z M554.467996,13.6259524 C556.35517,15.5256603 556.402504,18.5600747 554.617321,20.5167666 L554.444592,20.6969815 L518.523812,56.3807582 C516.564739,58.326906 513.398931,58.3164275 511.452783,56.3573539 C509.56561,54.4576461 509.518276,51.4232316 511.303458,49.4665397 L511.476188,49.2863248 L547.396967,13.6025482 C549.356041,11.6564003 552.521848,11.6668788 554.467996,13.6259524 Z" id="Comet" fill="#42D79E" fill-rule="nonzero"></path>
    </g>
</svg>